<svg width="140" height="88" viewBox="0 0 140 88" fill="none" xmlns="http://www.w3.org/2000/svg">
<g id="developer_solid II" clip-path="url(#clip0_2260_26565)">
<g id="Layer 2">
<g id="solid II">
<path id="chair" d="M27.2674 34.377H51.8441C53.8482 34.377 55.8328 34.7717 57.6844 35.5387C59.536 36.3056 61.2185 37.4298 62.6356 38.847C64.0528 40.2641 65.177 41.9466 65.9439 43.7982C66.7109 45.6498 67.1056 47.6343 67.1056 49.6385V87.6168H12.0059V49.6385C12.0059 45.5909 13.6138 41.7091 16.4759 38.847C19.338 35.9849 23.2198 34.377 27.2674 34.377Z" fill="#465F9D"/>
<g id="body">
<path id="hoodie" d="M80.1393 41.657C80.1711 36.1453 78.107 27.7229 55.4089 31.9225C43.7794 33.9856 42.8198 39.1295 45.3154 44.0703C40.7974 46.3343 32.6417 51.6166 25.5687 62.584C15.1381 78.747 25.2119 87.6767 31.1408 87.6767C37.0698 87.6767 103.002 87.1552 103.002 87.1552C103.002 87.1552 105.569 61.7167 80.1393 41.657Z" fill="#D5DBEF"/>
<path id="t-shirt" d="M52.6068 38.4285L50.2363 40.866C50.2363 40.866 61.5211 49.4487 65.1927 70.1298C67.5785 83.5676 66.7638 85.0762 66.7638 85.0762L73.7622 84.7029C73.7622 84.7029 69.8634 62.3563 72.292 55.2843C74.7207 48.2124 72.5007 40.2709 70.857 38.9852C69.2134 37.6995 52.6068 38.4285 52.6068 38.4285Z" fill="white"/>
<path id="neck" d="M55.3555 31.5273L55.0942 36.052L52.8555 38.6234C52.8555 38.6234 59.475 42.7155 65.8113 49.9324C65.8113 49.9324 70.9948 44.4602 71.9039 35.8862L59.7605 37.3849L58.8086 32.6418L55.3555 31.5273Z" fill="white" stroke="#2E186A" stroke-width="0.649362" stroke-linecap="round" stroke-linejoin="round"/>
<g id="hand">
<g id="hand_2">
<path d="M72.3075 74.3334C74.1016 74.7462 75.5322 75.1459 75.9308 75.4445C77.2176 76.4162 82.558 81.648 82.7534 82.5011C82.9489 83.3542 81.3832 83.8285 80.0909 82.5143L76.2821 78.8822C76.2821 78.8822 80.1623 83.2982 80.462 83.9735C80.7618 84.6487 79.2477 85.84 77.0057 83.0007C74.7636 80.1614 74.4068 80.135 74.4068 80.135C74.4068 80.135 76.9705 83.7078 77.3109 84.5169C77.6512 85.3261 75.4883 86.0925 73.5065 82.3485L61.6562 81.8281L62.3502 72.4219C62.3502 72.4219 68.255 73.41 72.3075 74.3422" fill="white"/>
<path d="M72.3075 74.3334C74.1016 74.7462 75.5322 75.1459 75.9308 75.4445C77.2176 76.4162 82.558 81.648 82.7534 82.5011C82.9489 83.3542 81.3832 83.8285 80.0909 82.5143L76.2821 78.8822C76.2821 78.8822 80.1623 83.2982 80.462 83.9735C80.7618 84.6487 79.2477 85.84 77.0057 83.0007C74.7636 80.1614 74.4068 80.135 74.4068 80.135C74.4068 80.135 76.9705 83.7078 77.3109 84.5169C77.6512 85.3261 75.4883 86.0925 73.5065 82.3485L61.6562 81.8281L62.3502 72.4219C62.3502 72.4219 68.255 73.41 72.3075 74.3422" stroke="#2E186A" stroke-width="0.649362" stroke-linecap="round" stroke-linejoin="round"/>
</g>
<g id="sleeve">
<path d="M41.5713 87.6178C41.5713 87.6178 60.5725 86.3288 62.7025 85.7821C64.8326 85.2353 64.0431 83.6773 65.5858 83.0833C67.1284 82.4893 67.6225 82.0128 67.6225 82.0128C65.622 78.8221 67.6225 73.5366 67.6225 73.5366C67.6225 73.5366 67.0988 73.3938 65.4793 73.06C63.8598 72.7263 64.3813 71.0596 62.1931 70.8641C60.0049 70.6687 41.1914 72.8163 41.1914 72.8163" fill="#D5DBEF"/>
<path d="M41.5713 87.6178C41.5713 87.6178 60.5725 86.3288 62.7025 85.7821C64.8326 85.2353 64.0431 83.6773 65.5858 83.0833C67.1284 82.4893 67.6225 82.0128 67.6225 82.0128C65.622 78.8221 67.6225 73.5366 67.6225 73.5366C67.6225 73.5366 67.0988 73.3938 65.4793 73.06C63.8598 72.7263 64.3813 71.0596 62.1931 70.8641C60.0049 70.6687 41.1914 72.8163 41.1914 72.8163" stroke="#2E186A" stroke-width="0.649362" stroke-linecap="round" stroke-linejoin="round"/>
</g>
<path id="line" d="M42.4785 67.1504C42.4785 67.1504 46.0458 67.4984 46.9527 72.1823" stroke="#2E186A" stroke-width="0.649362" stroke-linecap="round" stroke-linejoin="round"/>
<path id="welt" d="M65.8477 83.3003C67.5176 82.6722 68.0513 82.1672 68.0513 82.1672C65.8872 78.7888 68.0513 73.1925 68.0513 73.1925C68.0513 73.1925 67.4847 73.041 65.7324 72.6874C65.0275 72.5458 64.6981 72.1747 64.4006 71.7695C60.8124 75.8386 62.9666 82.9884 63.9251 85.5796C64.7662 84.8407 64.5817 83.7757 65.8477 83.3003Z" fill="#2E186A"/>
</g>
<path id="shadow" d="M80.1401 41.6582C80.1401 42.6848 80.0567 43.6104 80.0304 44.335C79.8108 49.401 77.359 52.0899 76.3906 54.1068C79.6263 52.1085 82.5919 47.809 84.0555 44.9729C82.8279 43.8574 81.5228 42.7525 80.1401 41.6582Z" fill="#2E186A"/>
<path id="shadow II" d="M56.3569 55.2201C54.6167 54.4196 47.9872 49.3603 45.3159 44.0703C43.0115 45.239 40.8167 46.6122 38.7578 48.1734C40.6386 49.2516 51.4337 55.3167 56.3888 55.2771L56.3569 55.2201Z" fill="#2E186A"/>
<path id="string II" d="M57.6172 53.6719C57.6172 53.6719 61.2602 61.2544 61.7609 66.4082" stroke="#2E186A" stroke-width="0.865816" stroke-linecap="round" stroke-linejoin="round"/>
<path id="string" d="M74.5058 54.0039C74.5058 54.0039 72.8303 61.2592 73.3804 66.4042" stroke="#2E186A" stroke-width="0.865816" stroke-linecap="round" stroke-linejoin="round"/>
</g>
<g id="code lines">
<path id="Vector" d="M109.285 34.5566H108.553C108.25 34.5566 108.004 34.8024 108.004 35.1056V36.5154C108.004 36.8186 108.25 37.0644 108.553 37.0644H109.285C109.588 37.0644 109.834 36.8186 109.834 36.5154V35.1056C109.834 34.8024 109.588 34.5566 109.285 34.5566Z" fill="#FEAD7C"/>
<path id="Vector_2" d="M106.751 34.5566H95.2619C94.9587 34.5566 94.7129 34.8024 94.7129 35.1056V36.5154C94.7129 36.8186 94.9587 37.0644 95.2619 37.0644H106.751C107.054 37.0644 107.3 36.8186 107.3 36.5154V35.1056C107.3 34.8024 107.054 34.5566 106.751 34.5566Z" fill="#465F9D"/>
<path id="Vector_3" d="M107.891 46.2031H95.2619C94.9587 46.2031 94.7129 46.4489 94.7129 46.7521V48.1619C94.7129 48.4651 94.9587 48.7109 95.2619 48.7109H107.891C108.194 48.7109 108.44 48.4651 108.44 48.1619V46.7521C108.44 46.4489 108.194 46.2031 107.891 46.2031Z" fill="#465F9D"/>
<path id="Vector_4" d="M118.924 42.3262H98.7326C98.4294 42.3262 98.1836 42.572 98.1836 42.8751V44.2849C98.1836 44.5881 98.4294 44.8339 98.7326 44.8339H118.924C119.227 44.8339 119.473 44.5881 119.473 44.2849V42.8751C119.473 42.572 119.227 42.3262 118.924 42.3262Z" fill="#FEAD7C"/>
<path id="Vector_5" d="M131.614 42.3262H121.213C120.91 42.3262 120.664 42.572 120.664 42.8751V44.2849C120.664 44.5881 120.91 44.8339 121.213 44.8339H131.614C131.917 44.8339 132.163 44.5881 132.163 44.2849V42.8751C132.163 42.572 131.917 42.3262 131.614 42.3262Z" fill="#FEAD7C"/>
<path id="Vector_6" d="M135.506 38.4492H134.774C134.47 38.4492 134.225 38.695 134.225 38.9982V40.408C134.225 40.7112 134.47 40.9569 134.774 40.9569H135.506C135.809 40.9569 136.055 40.7112 136.055 40.408V38.9982C136.055 38.695 135.809 38.4492 135.506 38.4492Z" fill="#465F9D"/>
<path id="Vector_7" d="M116.178 38.4414H95.2619C94.9587 38.4414 94.7129 38.6872 94.7129 38.9904V40.4002C94.7129 40.7034 94.9587 40.9491 95.2619 40.9491H116.178C116.481 40.9491 116.727 40.7034 116.727 40.4002V38.9904C116.727 38.6872 116.481 38.4414 116.178 38.4414Z" fill="#465F9D"/>
<path id="Vector_8" d="M122.679 34.5566H111.19C110.886 34.5566 110.641 34.8024 110.641 35.1056V36.5154C110.641 36.8186 110.886 37.0644 111.19 37.0644H122.679C122.982 37.0644 123.228 36.8186 123.228 36.5154V35.1056C123.228 34.8024 122.982 34.5566 122.679 34.5566Z" fill="#465F9D"/>
<path id="Vector_9" d="M132.69 38.4336H118.26C117.957 38.4336 117.711 38.6794 117.711 38.9826V40.4077C117.711 40.7109 117.957 40.9567 118.26 40.9567H132.69C132.994 40.9567 133.239 40.7109 133.239 40.4077V38.9826C133.239 38.6794 132.994 38.4336 132.69 38.4336Z" fill="#D5DBEF"/>
</g>
<g id="laptop">
<path id="laptop_2" d="M116.319 87.5068C116.591 87.5069 116.855 87.4152 117.069 87.2464C117.282 87.0776 117.432 86.8417 117.495 86.5769L124.124 58.5109C124.166 58.3336 124.168 58.1492 124.128 57.9713C124.089 57.7935 124.009 57.6269 123.896 57.484C123.783 57.3411 123.64 57.2256 123.476 57.1462C123.312 57.0668 123.132 57.0255 122.95 57.0254H80.2611C79.989 57.0253 79.7249 57.117 79.5114 57.2858C79.298 57.4546 79.1478 57.6905 79.0852 57.9554L73.1563 83.0777H57.6751C57.6751 83.0777 56.8176 87.5068 61.8155 87.5068" fill="#465F9D"/>
</g>
<g id="hot coffie">
<path id="handle" d="M18.0229 81.5399C19.6298 81.5399 20.9324 80.2372 20.9324 78.6303C20.9324 77.0234 19.6298 75.7207 18.0229 75.7207C16.4159 75.7207 15.1133 77.0234 15.1133 78.6303C15.1133 80.2372 16.4159 81.5399 18.0229 81.5399Z" stroke="white" stroke-width="0.649362" stroke-linecap="round" stroke-linejoin="round"/>
<path id="mug" d="M18.7734 74.6816H30.9168V84.1054C30.9168 84.979 30.5698 85.8168 29.9521 86.4345C29.3344 87.0522 28.4965 87.3993 27.623 87.3993H22.0673C21.1937 87.3993 20.3559 87.0522 19.7382 86.4345C19.1205 85.8168 18.7734 84.979 18.7734 84.1054V74.6816Z" fill="#FEAD7C"/>
<path id="steam" d="M24.923 71.3313C25.2293 74.6516 19.2564 66.9395 20.092 62.4796C20.9275 58.0197 24.1302 58.1976 25.4719 55.6866C26.2811 54.1769 26.2196 53.1854 26.0418 52.6354C26.0286 52.5961 26.0275 52.5537 26.0388 52.5138C26.05 52.4739 26.073 52.4383 26.1047 52.4116C26.1365 52.3849 26.1755 52.3685 26.2168 52.3643C26.258 52.3602 26.2996 52.3685 26.336 52.3883C27.9017 53.2403 32.0146 56.0324 30.6499 61.3114C28.4035 69.1596 24.2971 64.5811 24.923 71.3313Z" fill="white"/>
</g>
<g id="head">
<path id="ear" d="M53.7909 22.9805C53.7909 22.9805 49.5715 23.0617 50.3269 26.8387C51.0823 30.6156 55.7453 28.4318 55.7453 28.4318L55.1216 23.0584L53.7909 22.9805Z" fill="white" stroke="#2E186A" stroke-width="0.649362" stroke-linecap="round" stroke-linejoin="round"/>
<path id="face" d="M65.8142 11.0726C66.9264 10.9804 74.5484 10.5017 75.3818 16.8588C76.2151 23.216 75.3159 30.2352 74.6132 33.4379C73.9105 36.6407 59.3198 35.1584 58.4941 34.873C57.6684 34.5875 56.6847 33.6191 56.6847 33.6191L54.6776 23.8594C54.6776 23.8594 53.8662 12.0651 65.8142 11.0726Z" fill="white" stroke="#2E186A" stroke-width="0.649362" stroke-linecap="round" stroke-linejoin="round"/>
<path id="beard" d="M56.0688 23.7773C56.7737 24.4778 58.6644 28.5172 59.1255 30.4002C59.1255 30.4002 63.8039 28.817 70.5069 28.7203C70.5069 28.7203 74.1609 28.795 75.6179 29.2287C75.6179 29.2287 75.3028 35.8977 72.3394 39.3496C69.376 42.8016 63.1166 41.8365 60.1729 39.7603C57.2293 37.684 56.7495 36.6937 56.0688 34.4758C55.3881 32.2579 53.5918 23.9739 53.5918 23.9739L56.0688 23.7773Z" fill="#968BB4"/>
<path id="hair" d="M54.1588 25.2032C54.1588 25.2032 52.1758 22.1344 51.4139 18.9448C50.6947 15.9463 52.0891 12.804 54.8647 11.4601C57.188 10.3358 58.9107 11.2174 58.9107 11.2174C58.9107 11.2174 56.4447 7.01995 60.1437 3.31215C60.7912 2.66345 61.5642 2.15361 62.4154 1.8138C63.2666 1.47399 64.1782 1.31135 65.0944 1.33583C69.6114 1.46868 71.0069 5.28847 71.0069 5.28847C71.0069 5.28847 75.8379 -3.59508 85.7568 1.66522C86.757 2.19553 87.8835 3.67448 88.4226 4.67032C91.6978 10.7091 80.906 17.8458 75.2878 18.4167C69.1195 19.0371 65.5072 18.0149 63.521 16.5063C64.9967 17.3923 63.3333 26.6239 54.1588 25.2032Z" fill="#2E186A"/>
<path id="mouth" d="M66.1562 33.3379C66.1562 33.3379 66.4373 35.0946 68.0568 34.8135" stroke="#2E186A" stroke-width="0.865816" stroke-linecap="round" stroke-linejoin="round"/>
<path id="nose" d="M70.6898 26.1543L71.3574 31.9647L69.3086 31.441" stroke="#2E186A" stroke-width="0.865816" stroke-linecap="round" stroke-linejoin="round"/>
<path id="eye II" d="M72.9427 27.1764C73.2714 27.1764 73.5378 26.7639 73.5378 26.2552C73.5378 25.7464 73.2714 25.334 72.9427 25.334C72.6141 25.334 72.3477 25.7464 72.3477 26.2552C72.3477 26.7639 72.6141 27.1764 72.9427 27.1764Z" fill="#2E186A"/>
<path id="eye" d="M67.2123 27.0748C67.5409 27.0748 67.8074 26.6624 67.8074 26.1537C67.8074 25.6449 67.5409 25.2325 67.2123 25.2325C66.8836 25.2325 66.6172 25.6449 66.6172 26.1537C66.6172 26.6624 66.8836 27.0748 67.2123 27.0748Z" fill="#2E186A"/>
<path id="brow II" d="M64.5234 21.8947C64.8237 21.5096 65.2219 21.2122 65.6763 21.0334C66.1307 20.8545 66.6247 20.8009 67.1069 20.878" stroke="#2E186A" stroke-width="0.865816" stroke-linecap="round" stroke-linejoin="round"/>
<path id="brow" d="M72.5742 20.7817C72.5742 20.7817 74.2211 20.3524 74.6373 21.7018" stroke="#2E186A" stroke-width="0.865816" stroke-linecap="round" stroke-linejoin="round"/>
</g>
<path id="line_2" d="M0.328125 87.6719H139.194" stroke="#2E186A" stroke-width="0.649362" stroke-linecap="round" stroke-linejoin="round"/>
</g>
</g>
</g>
<defs>
<clipPath id="clip0_2260_26565">
<rect width="139.525" height="88" fill="white"/>
</clipPath>
</defs>
</svg>
