<svg width="191" height="90" viewBox="0 0 191 90" fill="none" xmlns="http://www.w3.org/2000/svg">
<g id="hands/solid ">
<g id="board">
<g id="board-2">
<path id="board_shape" fill-rule="evenodd" clip-rule="evenodd" d="M140.237 36.9828V21.4388C140.237 20.7702 139.972 20.1289 139.499 19.656C139.026 19.1831 138.385 18.9174 137.717 18.9174H36.4442C35.0517 18.9174 33.9229 20.0463 33.9229 21.4388V88.6792H45.4815V76.741H125.589C126.98 76.741 128.109 77.8693 128.109 79.2612V88.6792H140.235V79.7718V52.8511L160.873 88.8339L165.498 88.9141L165.521 88.9525H172.246L140.237 36.9828Z" fill="#D5DBEF"/>
<g id="lines">
<path id="Path" fill-rule="evenodd" clip-rule="evenodd" d="M135.815 23.7026C136.002 23.7026 136.154 23.8544 136.154 24.0415C136.154 24.222 136.013 24.3695 135.835 24.3799L135.815 24.3804H34.2617C34.0746 24.3804 33.9229 24.2287 33.9229 24.0415C33.9229 23.8611 34.0639 23.7135 34.2418 23.7032L34.2617 23.7026H135.815Z" fill="#2F4077"/>
<path id="Path_2" fill-rule="evenodd" clip-rule="evenodd" d="M133.294 18.9174C134.858 18.9174 136.129 20.1725 136.154 21.7304L136.154 21.7777V88.8294C136.154 89.0166 136.003 89.1683 135.815 89.1683C135.635 89.1683 135.487 89.0272 135.477 88.8493L135.476 88.8294V21.7777C135.476 20.5723 134.499 19.5952 133.294 19.5952C133.107 19.5952 132.955 19.4435 132.955 19.2563C132.955 19.0691 133.107 18.9174 133.294 18.9174Z" fill="#2F4077"/>
<path id="Path_3" fill-rule="evenodd" clip-rule="evenodd" d="M139.899 45.8484C139.899 45.5095 140.338 45.3837 140.52 45.6601L140.53 45.6769L165.604 88.4173C165.699 88.5787 165.645 88.7864 165.483 88.8811C165.328 88.9723 165.129 88.9255 165.03 88.7778L165.019 88.7603L140.577 47.0957L140.577 52.9392C140.577 53.1197 140.436 53.2672 140.258 53.2775L140.238 53.2781C140.057 53.2781 139.91 53.137 139.9 52.9591L139.899 52.9392V45.8484Z" fill="#2F4077"/>
<path id="Path_4" fill-rule="evenodd" clip-rule="evenodd" d="M45.2274 76.4021C45.4145 76.4021 45.5663 76.5538 45.5663 76.741C45.5663 76.9215 45.4252 77.069 45.2473 77.0793L45.2274 77.0799L44.1526 77.0799C43.5736 77.0791 43.018 77.3086 42.6083 77.7178C42.2102 78.1152 41.9816 78.6506 41.9689 79.2117L41.9683 79.2613V88.6792C41.9683 88.8663 41.8166 89.0181 41.6294 89.0181C41.4489 89.0181 41.3014 88.877 41.2911 88.6991L41.2905 88.6792V79.2613C41.2905 78.5023 41.5923 77.7745 42.1293 77.2382C42.6541 76.7141 43.3616 76.4149 44.1014 76.4025L44.1531 76.4021H45.2274Z" fill="#2F4077"/>
</g>
<g id="circles">
<ellipse id="Oval" cx="40.0173" cy="21.5597" rx="1.31266" ry="1.31266" fill="#465F9D"/>
<ellipse id="Oval_2" cx="44.3913" cy="21.5597" rx="1.31266" ry="1.31266" fill="#465F9D"/>
<ellipse id="Oval_3" cx="48.7653" cy="21.5597" rx="1.31266" ry="1.31266" fill="#465F9D"/>
</g>
</g>
<g id="calendar">
<rect id="shape" x="87.5552" y="40.3458" width="35.8597" height="28.4029" fill="white"/>
<g id="lines-2">
<path id="Path_5" fill-rule="evenodd" clip-rule="evenodd" d="M123.142 46.0325C123.329 46.0325 123.481 46.1842 123.481 46.3714C123.481 46.5519 123.339 46.6994 123.162 46.7097L123.142 46.7103H87.8716C87.6844 46.7103 87.5327 46.5586 87.5327 46.3714C87.5327 46.1909 87.6738 46.0434 87.8517 46.0331L87.8716 46.0325H123.142Z" fill="#465F9D"/>
<path id="Path_6" fill-rule="evenodd" clip-rule="evenodd" d="M111.557 43.0163C111.744 43.0163 111.896 43.1681 111.896 43.3552C111.896 43.5357 111.755 43.6832 111.577 43.6935L111.557 43.6941H99.5557C99.3685 43.6941 99.2168 43.5424 99.2168 43.3552C99.2168 43.1747 99.3579 43.0272 99.5358 43.0169L99.5557 43.0163H111.557Z" fill="#465F9D"/>
</g>
<g id="squares">
<path id="Rectangle" fill-rule="evenodd" clip-rule="evenodd" d="M108.442 49.4045H102.052C101.865 49.4045 101.713 49.5562 101.713 49.7434V56.1327C101.713 56.3199 101.865 56.4716 102.052 56.4716H108.442C108.629 56.4716 108.78 56.3199 108.78 56.1327V49.7434C108.78 49.5562 108.629 49.4045 108.442 49.4045ZM108.103 50.0823V55.7938H102.391V50.0823H108.103Z" fill="#D5DBEF"/>
<path id="Rectangle_2" fill-rule="evenodd" clip-rule="evenodd" d="M118.181 49.4045H111.792C111.605 49.4045 111.453 49.5562 111.453 49.7434V56.1327C111.453 56.3199 111.605 56.4716 111.792 56.4716H118.181C118.369 56.4716 118.52 56.3199 118.52 56.1327V49.7434C118.52 49.5562 118.369 49.4045 118.181 49.4045ZM117.842 50.0823V55.7938H112.131V50.0823H117.842Z" fill="#D5DBEF"/>
<path id="Rectangle_3" fill-rule="evenodd" clip-rule="evenodd" d="M108.442 58.296H102.052C101.865 58.296 101.713 58.4477 101.713 58.6349V65.0242C101.713 65.2114 101.865 65.3631 102.052 65.3631H108.442C108.629 65.3631 108.78 65.2114 108.78 65.0242V58.6349C108.78 58.4477 108.629 58.296 108.442 58.296ZM108.103 58.9737V64.6853H102.391V58.9737H108.103Z" fill="#D5DBEF"/>
<path id="Rectangle_4" fill-rule="evenodd" clip-rule="evenodd" d="M118.181 58.296H111.792C111.605 58.296 111.453 58.4477 111.453 58.6349V65.0242C111.453 65.2114 111.605 65.3631 111.792 65.3631H118.181C118.369 65.3631 118.52 65.2114 118.52 65.0242V58.6349C118.52 58.4477 118.369 58.296 118.181 58.296ZM117.842 58.9737V64.6853H112.131V58.9737H117.842Z" fill="#D5DBEF"/>
<path id="Rectangle_5" fill-rule="evenodd" clip-rule="evenodd" d="M98.7018 49.4045H92.3125C92.1254 49.4045 91.9736 49.5562 91.9736 49.7434V56.1327C91.9736 56.3199 92.1254 56.4716 92.3125 56.4716H98.7018C98.889 56.4716 99.0407 56.3199 99.0407 56.1327V49.7434C99.0407 49.5562 98.889 49.4045 98.7018 49.4045ZM98.3629 50.0823V55.7938H92.6514V50.0823H98.3629Z" fill="#D5DBEF"/>
</g>
<g id="cross">
<path id="Path_7" fill-rule="evenodd" clip-rule="evenodd" d="M117.8 49.6003C117.932 49.467 118.146 49.4656 118.279 49.5971C118.407 49.7233 118.414 49.9261 118.298 50.06L118.283 50.0763L112.213 56.2273C112.081 56.3605 111.867 56.3619 111.734 56.2305C111.606 56.1043 111.599 55.9015 111.715 55.7676L111.73 55.7512L117.8 49.6003Z" fill="#465F9D"/>
<path id="Path_8" fill-rule="evenodd" clip-rule="evenodd" d="M111.552 49.5037C111.679 49.3767 111.882 49.3716 112.015 49.4885L112.032 49.5038L118.421 55.8942C118.553 56.0266 118.553 56.2412 118.421 56.3735C118.294 56.5006 118.091 56.5056 117.958 56.3887L117.942 56.3735L111.552 49.983C111.42 49.8507 111.42 49.6361 111.552 49.5037Z" fill="#465F9D"/>
</g>
</g>
<g id="sliders">
<g id="BG">
<rect id="Rectangle_6" x="41.5664" y="32.4111" width="33.3259" height="38.4703" fill="#465F9D"/>
<path id="Path_9" fill-rule="evenodd" clip-rule="evenodd" d="M70.0006 67.2632C70.1811 67.2632 70.3286 67.4043 70.3389 67.5822L70.3395 67.6021V68.4493C70.3395 68.6298 70.1984 68.7773 70.0205 68.7876L70.0006 68.7882H69.1533C68.9662 68.7882 68.8145 68.6365 68.8145 68.4493C68.8145 68.2688 68.9555 68.1213 69.1334 68.111L69.1533 68.1104H69.6616L69.6617 67.6021C69.6617 67.4216 69.8028 67.2741 69.9807 67.2638L70.0006 67.2632Z" fill="#465F9D"/>
<path id="Path_10" fill-rule="evenodd" clip-rule="evenodd" d="M67.5099 68.1104H65.8662C65.6791 68.1104 65.5274 68.2622 65.5274 68.4493C65.5274 68.6365 65.6791 68.7882 65.8662 68.7882H67.5099C67.6971 68.7882 67.8488 68.6365 67.8488 68.4493C67.8488 68.2622 67.6971 68.1104 67.5099 68.1104ZM64.2226 68.1104H62.579C62.3918 68.1104 62.2401 68.2622 62.2401 68.4493C62.2401 68.6365 62.3918 68.7882 62.579 68.7882H64.2226C64.4098 68.7882 64.5615 68.6365 64.5615 68.4493C64.5615 68.2622 64.4098 68.1104 64.2226 68.1104ZM60.9353 68.1104H59.2917C59.1045 68.1104 58.9528 68.2622 58.9528 68.4493C58.9528 68.6365 59.1045 68.7882 59.2917 68.7882H60.9353C61.1225 68.7882 61.2742 68.6365 61.2742 68.4493C61.2742 68.2622 61.1225 68.1104 60.9353 68.1104ZM57.648 68.1104H56.0044C55.8172 68.1104 55.6655 68.2622 55.6655 68.4493C55.6655 68.6365 55.8172 68.7882 56.0044 68.7882H57.648C57.8352 68.7882 57.9869 68.6365 57.9869 68.4493C57.9869 68.2622 57.8352 68.1104 57.648 68.1104ZM54.3607 68.1104H52.7171C52.5299 68.1104 52.3782 68.2622 52.3782 68.4493C52.3782 68.6365 52.5299 68.7882 52.7171 68.7882H54.3607C54.5479 68.7882 54.6996 68.6365 54.6996 68.4493C54.6996 68.2622 54.5479 68.1104 54.3607 68.1104ZM51.0734 68.1104H49.4298C49.2426 68.1104 49.0909 68.2622 49.0909 68.4493C49.0909 68.6365 49.2426 68.7882 49.4298 68.7882H51.0734C51.2606 68.7882 51.4123 68.6365 51.4123 68.4493C51.4123 68.2622 51.2606 68.1104 51.0734 68.1104ZM47.7861 68.1104H46.1425C45.9553 68.1104 45.8036 68.2622 45.8036 68.4493C45.8036 68.6365 45.9553 68.7882 46.1425 68.7882H47.7861C47.9733 68.7882 48.125 68.6365 48.125 68.4493C48.125 68.2622 47.9733 68.1104 47.7861 68.1104ZM44.4989 68.1104H42.8552C42.668 68.1104 42.5163 68.2622 42.5163 68.4493C42.5163 68.6365 42.668 68.7882 42.8552 68.7882H44.4989C44.686 68.7882 44.8377 68.6365 44.8377 68.4493C44.8377 68.2622 44.686 68.1104 44.4989 68.1104ZM41.2115 68.1104H39.5679C39.3807 68.1104 39.229 68.2622 39.229 68.4493C39.229 68.6365 39.3807 68.7882 39.5679 68.7882H41.2115C41.3987 68.7882 41.5504 68.6365 41.5504 68.4493C41.5504 68.2622 41.3987 68.1104 41.2115 68.1104Z" fill="#465F9D"/>
<path id="Path_11" fill-rule="evenodd" clip-rule="evenodd" d="M37.0816 67.2632C37.2621 67.2632 37.4096 67.4043 37.4199 67.5822L37.4205 67.6021L37.4204 68.1104H37.9288C38.1093 68.1104 38.2568 68.2515 38.2671 68.4294L38.2677 68.4493C38.2677 68.6298 38.1266 68.7773 37.9487 68.7876L37.9288 68.7882H37.0816C36.9011 68.7882 36.7536 68.6471 36.7433 68.4692L36.7427 68.4493V67.6021C36.7427 67.4149 36.8944 67.2632 37.0816 67.2632Z" fill="#465F9D"/>
<path id="Path_12" fill-rule="evenodd" clip-rule="evenodd" d="M37.4205 65.8557V64.1092C37.4205 63.922 37.2687 63.7703 37.0816 63.7703C36.8944 63.7703 36.7427 63.922 36.7427 64.1092V65.8557C36.7427 66.0428 36.8944 66.1945 37.0816 66.1945C37.2687 66.1945 37.4205 66.0428 37.4205 65.8557ZM37.4205 62.3628V60.6163C37.4205 60.4292 37.2687 60.2774 37.0816 60.2774C36.8944 60.2774 36.7427 60.4292 36.7427 60.6163V62.3628C36.7427 62.5499 36.8944 62.7017 37.0816 62.7017C37.2687 62.7017 37.4205 62.5499 37.4205 62.3628ZM37.4205 58.8699V57.1234C37.4205 56.9363 37.2687 56.7845 37.0816 56.7845C36.8944 56.7845 36.7427 56.9363 36.7427 57.1234V58.8699C36.7427 59.057 36.8944 59.2088 37.0816 59.2088C37.2687 59.2088 37.4205 59.057 37.4205 58.8699ZM37.4205 55.377V53.6305C37.4205 53.4434 37.2687 53.2916 37.0816 53.2916C36.8944 53.2916 36.7427 53.4434 36.7427 53.6305V55.377C36.7427 55.5642 36.8944 55.7159 37.0816 55.7159C37.2687 55.7159 37.4205 55.5642 37.4205 55.377ZM37.4205 51.8841V50.1377C37.4205 49.9505 37.2687 49.7988 37.0816 49.7988C36.8944 49.7988 36.7427 49.9505 36.7427 50.1377V51.8841C36.7427 52.0713 36.8944 52.223 37.0816 52.223C37.2687 52.223 37.4205 52.0713 37.4205 51.8841ZM37.4205 48.3912V46.6448C37.4205 46.4576 37.2687 46.3059 37.0816 46.3059C36.8944 46.3059 36.7427 46.4576 36.7427 46.6448V48.3912C36.7427 48.5784 36.8944 48.7301 37.0816 48.7301C37.2687 48.7301 37.4205 48.5784 37.4205 48.3912ZM37.4205 44.8983V43.1519C37.4205 42.9647 37.2687 42.813 37.0816 42.813C36.8944 42.813 36.7427 42.9647 36.7427 43.1519V44.8983C36.7427 45.0855 36.8944 45.2372 37.0816 45.2372C37.2687 45.2372 37.4205 45.0855 37.4205 44.8983ZM37.4205 41.4054V39.659C37.4205 39.4718 37.2687 39.3201 37.0816 39.3201C36.8944 39.3201 36.7427 39.4718 36.7427 39.659V41.4054C36.7427 41.5926 36.8944 41.7443 37.0816 41.7443C37.2687 41.7443 37.4205 41.5926 37.4205 41.4054ZM37.4205 37.9125V36.1661C37.4205 35.9789 37.2687 35.8272 37.0816 35.8272C36.8944 35.8272 36.7427 35.9789 36.7427 36.1661V37.9125C36.7427 38.0997 36.8944 38.2514 37.0816 38.2514C37.2687 38.2514 37.4205 38.0997 37.4205 37.9125ZM37.4205 34.4197V32.6732C37.4205 32.486 37.2687 32.3343 37.0816 32.3343C36.8944 32.3343 36.7427 32.486 36.7427 32.6732V34.4197C36.7427 34.6068 36.8944 34.7586 37.0816 34.7586C37.2687 34.7586 37.4205 34.6068 37.4205 34.4197Z" fill="#465F9D"/>
<path id="Path_13" fill-rule="evenodd" clip-rule="evenodd" d="M37.9288 29.7485C38.116 29.7485 38.2677 29.9003 38.2677 30.0874C38.2677 30.2679 38.1266 30.4154 37.9487 30.4258L37.9288 30.4263H37.4204L37.4205 30.9347C37.4205 31.1152 37.2794 31.2627 37.1015 31.273L37.0816 31.2736C36.9011 31.2736 36.7536 31.1325 36.7433 30.9546L36.7427 30.9347V30.0874C36.7427 29.9069 36.8838 29.7594 37.0617 29.7491L37.0816 29.7485H37.9288Z" fill="#465F9D"/>
<path id="Path_14" fill-rule="evenodd" clip-rule="evenodd" d="M39.5723 30.4263H41.2159C41.4031 30.4263 41.5548 30.2746 41.5548 30.0874C41.5548 29.9003 41.4031 29.7485 41.2159 29.7485H39.5723C39.3851 29.7485 39.2334 29.9003 39.2334 30.0874C39.2334 30.2746 39.3851 30.4263 39.5723 30.4263ZM42.8596 30.4263H44.5032C44.6904 30.4263 44.8421 30.2746 44.8421 30.0874C44.8421 29.9003 44.6904 29.7485 44.5032 29.7485H42.8596C42.6724 29.7485 42.5207 29.9003 42.5207 30.0874C42.5207 30.2746 42.6724 30.4263 42.8596 30.4263ZM46.1469 30.4263H47.7905C47.9777 30.4263 48.1294 30.2746 48.1294 30.0874C48.1294 29.9003 47.9777 29.7485 47.7905 29.7485H46.1469C45.9597 29.7485 45.808 29.9003 45.808 30.0874C45.808 30.2746 45.9597 30.4263 46.1469 30.4263ZM49.4342 30.4263H51.0778C51.265 30.4263 51.4167 30.2746 51.4167 30.0874C51.4167 29.9003 51.265 29.7485 51.0778 29.7485H49.4342C49.247 29.7485 49.0953 29.9003 49.0953 30.0874C49.0953 30.2746 49.247 30.4263 49.4342 30.4263ZM52.7214 30.4263H54.3651C54.5523 30.4263 54.704 30.2746 54.704 30.0874C54.704 29.9003 54.5523 29.7485 54.3651 29.7485H52.7214C52.5343 29.7485 52.3826 29.9003 52.3826 30.0874C52.3826 30.2746 52.5343 30.4263 52.7214 30.4263ZM56.0087 30.4263H57.6524C57.8396 30.4263 57.9913 30.2746 57.9913 30.0874C57.9913 29.9003 57.8396 29.7485 57.6524 29.7485H56.0087C55.8216 29.7485 55.6698 29.9003 55.6698 30.0874C55.6698 30.2746 55.8216 30.4263 56.0087 30.4263ZM59.296 30.4263H60.9397C61.1268 30.4263 61.2786 30.2746 61.2786 30.0874C61.2786 29.9003 61.1268 29.7485 60.9397 29.7485H59.296C59.1089 29.7485 58.9571 29.9003 58.9571 30.0874C58.9571 30.2746 59.1089 30.4263 59.296 30.4263ZM62.5833 30.4263H64.227C64.4141 30.4263 64.5659 30.2746 64.5659 30.0874C64.5659 29.9003 64.4141 29.7485 64.227 29.7485H62.5833C62.3962 29.7485 62.2444 29.9003 62.2444 30.0874C62.2444 30.2746 62.3962 30.4263 62.5833 30.4263ZM65.8706 30.4263H67.5143C67.7014 30.4263 67.8532 30.2746 67.8532 30.0874C67.8532 29.9003 67.7014 29.7485 67.5143 29.7485H65.8706C65.6834 29.7485 65.5317 29.9003 65.5317 30.0874C65.5317 30.2746 65.6834 30.4263 65.8706 30.4263Z" fill="#465F9D"/>
<path id="Path_15" fill-rule="evenodd" clip-rule="evenodd" d="M70.0006 29.7485C70.1811 29.7485 70.3286 29.8896 70.3389 30.0675L70.3395 30.0874V30.9347C70.3395 31.1218 70.1878 31.2736 70.0006 31.2736C69.8201 31.2736 69.6726 31.1325 69.6623 30.9546L69.6617 30.9347L69.6616 30.4263H69.1533C68.9729 30.4263 68.8253 30.2852 68.815 30.1073L68.8145 30.0874C68.8145 29.9069 68.9555 29.7594 69.1334 29.7491L69.1533 29.7485H70.0006Z" fill="#465F9D"/>
<path id="Path_16" fill-rule="evenodd" clip-rule="evenodd" d="M69.6621 32.6811V34.4276C69.6621 34.6147 69.8138 34.7665 70.001 34.7665C70.1882 34.7665 70.3399 34.6147 70.3399 34.4276V32.6811C70.3399 32.494 70.1882 32.3422 70.001 32.3422C69.8138 32.3422 69.6621 32.494 69.6621 32.6811ZM69.6621 36.174V37.9205C69.6621 38.1076 69.8138 38.2593 70.001 38.2593C70.1882 38.2593 70.3399 38.1076 70.3399 37.9205V36.174C70.3399 35.9868 70.1882 35.8351 70.001 35.8351C69.8138 35.8351 69.6621 35.9868 69.6621 36.174ZM69.6621 39.6669V41.4133C69.6621 41.6005 69.8138 41.7522 70.001 41.7522C70.1882 41.7522 70.3399 41.6005 70.3399 41.4133V39.6669C70.3399 39.4797 70.1882 39.328 70.001 39.328C69.8138 39.328 69.6621 39.4797 69.6621 39.6669ZM69.6621 43.1598V44.9062C69.6621 45.0934 69.8138 45.2451 70.001 45.2451C70.1882 45.2451 70.3399 45.0934 70.3399 44.9062V43.1598C70.3399 42.9726 70.1882 42.8209 70.001 42.8209C69.8138 42.8209 69.6621 42.9726 69.6621 43.1598ZM69.6621 46.6527V48.3991C69.6621 48.5863 69.8138 48.738 70.001 48.738C70.1882 48.738 70.3399 48.5863 70.3399 48.3991V46.6527C70.3399 46.4655 70.1882 46.3138 70.001 46.3138C69.8138 46.3138 69.6621 46.4655 69.6621 46.6527ZM69.6621 50.1456V51.892C69.6621 52.0792 69.8138 52.2309 70.001 52.2309C70.1882 52.2309 70.3399 52.0792 70.3399 51.892V50.1456C70.3399 49.9584 70.1882 49.8067 70.001 49.8067C69.8138 49.8067 69.6621 49.9584 69.6621 50.1456ZM69.6621 53.6385V55.3849C69.6621 55.5721 69.8138 55.7238 70.001 55.7238C70.1882 55.7238 70.3399 55.5721 70.3399 55.3849V53.6385C70.3399 53.4513 70.1882 53.2996 70.001 53.2996C69.8138 53.2996 69.6621 53.4513 69.6621 53.6385ZM69.6621 57.1313V58.8778C69.6621 59.0649 69.8138 59.2167 70.001 59.2167C70.1882 59.2167 70.3399 59.0649 70.3399 58.8778V57.1313C70.3399 56.9442 70.1882 56.7924 70.001 56.7924C69.8138 56.7924 69.6621 56.9442 69.6621 57.1313ZM69.6621 60.6242V62.3707C69.6621 62.5578 69.8138 62.7096 70.001 62.7096C70.1882 62.7096 70.3399 62.5578 70.3399 62.3707V60.6242C70.3399 60.4371 70.1882 60.2853 70.001 60.2853C69.8138 60.2853 69.6621 60.4371 69.6621 60.6242ZM69.6621 64.1171V65.8636C69.6621 66.0507 69.8138 66.2025 70.001 66.2025C70.1882 66.2025 70.3399 66.0507 70.3399 65.8636V64.1171C70.3399 63.93 70.1882 63.7782 70.001 63.7782C69.8138 63.7782 69.6621 63.93 69.6621 64.1171Z" fill="#465F9D"/>
</g>
<g id="III">
<path id="Path_17" fill-rule="evenodd" clip-rule="evenodd" d="M66.4448 59.5556C66.632 59.5556 66.7837 59.7073 66.7837 59.8945C66.7837 60.075 66.6426 60.2225 66.4647 60.2328L66.4448 60.2334H40.4278C40.2406 60.2334 40.0889 60.0817 40.0889 59.8945C40.0889 59.714 40.23 59.5665 40.4079 59.5562L40.4278 59.5556H66.4448Z" fill="#2F4077"/>
<circle id="Oval_4" cx="45.6289" cy="59.8945" r="3.21725" fill="white"/>
</g>
<g id="I">
<path id="Path_18" fill-rule="evenodd" clip-rule="evenodd" d="M66.4448 47.039C66.632 47.039 66.7837 47.1907 66.7837 47.3779C66.7837 47.5584 66.6426 47.7059 66.4647 47.7162L66.4448 47.7168H40.4278C40.2406 47.7168 40.0889 47.5651 40.0889 47.3779C40.0889 47.1974 40.23 47.0499 40.4079 47.0396L40.4278 47.039H66.4448Z" fill="#2F4077"/>
<circle id="Oval_5" cx="46.5957" cy="47.3779" r="3.21725" fill="white"/>
</g>
<g id="II">
<path id="Path_19" fill-rule="evenodd" clip-rule="evenodd" d="M66.4448 53.2894C66.632 53.2894 66.7837 53.4411 66.7837 53.6283C66.7837 53.8087 66.6426 53.9563 66.4647 53.9666L66.4448 53.9672H40.4278C40.2406 53.9672 40.0889 53.8154 40.0889 53.6283C40.0889 53.4478 40.23 53.3003 40.4079 53.2899L40.4278 53.2894H66.4448Z" fill="#2F4077"/>
<circle id="Oval_6" cx="55.7627" cy="53.6283" r="3.21725" fill="white"/>
</g>
<g id="big_sider">
<path id="Rectangle_7" fill-rule="evenodd" clip-rule="evenodd" d="M56.6258 36.2802H47.3265C45.9958 36.2802 44.917 37.359 44.917 38.6897V38.9281C44.917 40.2588 45.9958 41.3376 47.3265 41.3376H56.6258C57.9566 41.3376 59.0354 40.2588 59.0354 38.9281V38.6897C59.0354 37.359 57.9566 36.2802 56.6258 36.2802ZM47.3265 36.958H56.6258C57.5823 36.958 58.3576 37.7333 58.3576 38.6897V38.9281C58.3576 39.8845 57.5823 40.6599 56.6258 40.6599H47.3265C46.3701 40.6599 45.5948 39.8845 45.5948 38.9281V38.6897C45.5948 37.7333 46.3701 36.958 47.3265 36.958Z" fill="white"/>
<circle id="Oval_7" cx="56.2856" cy="38.8987" r="3.39009" fill="#FAA184"/>
</g>
</g>
<g id="tool_bar">
<rect id="Rectangle_8" x="126.908" y="29.221" width="4.92077" height="27.8832" fill="#465F9D"/>
<path id="Rectangle_9" fill-rule="evenodd" clip-rule="evenodd" d="M130.55 35.6318H128.306C128.119 35.6318 127.967 35.7835 127.967 35.9707V38.2153C127.967 38.4025 128.119 38.5542 128.306 38.5542H130.55C130.737 38.5542 130.889 38.4025 130.889 38.2153V35.9707C130.889 35.7835 130.737 35.6318 130.55 35.6318ZM130.211 36.3095V37.8764H128.645V36.3095H130.211Z" fill="white"/>
<path id="Rectangle_10" fill-rule="evenodd" clip-rule="evenodd" d="M130.55 40.7717H128.306C128.119 40.7717 127.967 40.9234 127.967 41.1106V43.3552C127.967 43.5424 128.119 43.6941 128.306 43.6941H130.55C130.737 43.6941 130.889 43.5424 130.889 43.3552V41.1106C130.889 40.9234 130.737 40.7717 130.55 40.7717ZM130.211 41.4495V43.0163H128.645V41.4495H130.211Z" fill="white"/>
<path id="Rectangle_11" fill-rule="evenodd" clip-rule="evenodd" d="M130.55 45.9105H128.306C128.119 45.9105 127.967 46.0622 127.967 46.2494V48.494C127.967 48.6811 128.119 48.8329 128.306 48.8329H130.55C130.737 48.8329 130.889 48.6811 130.889 48.494V46.2494C130.889 46.0622 130.737 45.9105 130.55 45.9105ZM130.211 46.5883V48.1551H128.645V46.5883H130.211Z" fill="white"/>
<path id="Rectangle_12" fill-rule="evenodd" clip-rule="evenodd" d="M130.55 51.0504H128.306C128.119 51.0504 127.967 51.2021 127.967 51.3893V53.6339C127.967 53.8211 128.119 53.9728 128.306 53.9728H130.55C130.737 53.9728 130.889 53.8211 130.889 53.6339V51.3893C130.889 51.2021 130.737 51.0504 130.55 51.0504ZM130.211 51.7282V53.295H128.645V51.7282H130.211Z" fill="white"/>
<path id="Path_20" fill-rule="evenodd" clip-rule="evenodd" d="M130.55 32.8777C130.737 32.8777 130.889 33.0294 130.889 33.2166C130.889 33.3971 130.748 33.5446 130.57 33.5549L130.55 33.5555H128.306C128.119 33.5555 127.967 33.4037 127.967 33.2166C127.967 33.0361 128.108 32.8886 128.286 32.8783L128.306 32.8777H130.55Z" fill="white"/>
<path id="Path_21" fill-rule="evenodd" clip-rule="evenodd" d="M130.55 31.7356C130.737 31.7356 130.889 31.8873 130.889 32.0745C130.889 32.255 130.748 32.4025 130.57 32.4128L130.55 32.4134H128.306C128.119 32.4134 127.967 32.2617 127.967 32.0745C127.967 31.894 128.108 31.7465 128.286 31.7362L128.306 31.7356H130.55Z" fill="white"/>
</g>
</g>
<g id="fancy_line">
<path id="Path_22" fill-rule="evenodd" clip-rule="evenodd" d="M12.3302 57.4809C14.1177 55.2615 17.1336 54.676 19.3726 56.4716C22.4133 58.9106 23.9173 63.7981 23.0517 68.661L23.0235 68.8147L23.0542 68.8214C24.5148 69.1352 26.017 69.316 27.5126 69.3376L27.6673 69.3392C34.0107 69.3841 39.7785 66.6801 44.2447 60.8707C44.3588 60.7223 44.5715 60.6945 44.7199 60.8085C44.8683 60.9226 44.8961 61.1354 44.782 61.2838C40.1841 67.2647 34.2143 70.0633 27.6625 70.017C26.0689 70.0057 24.467 69.8183 22.9109 69.4839L22.8839 69.478L22.846 69.6384C21.548 74.9831 17.5774 79.4618 11.1711 81.986L10.9679 82.0651C10.7932 82.1322 10.5972 82.0451 10.53 81.8704C10.4628 81.6957 10.55 81.4996 10.7247 81.4324C17.0436 79.0028 20.9281 74.6624 22.1872 69.4792L22.2235 69.3258L22.1369 69.3046C18.8528 68.4885 15.8176 67.026 13.5554 65.2015L13.4499 65.1157C10.7165 62.8737 10.467 59.7944 12.3302 57.4809ZM18.9485 57.0003C17.0226 55.4558 14.4254 55.96 12.8581 57.906C11.2241 59.9349 11.4392 62.5899 13.8797 64.5916C16.0755 66.3928 19.0639 67.8429 22.3026 68.6474L22.3624 68.6619L22.3842 68.5434C23.2008 63.9581 21.812 59.3685 19.0349 57.0707L18.9485 57.0003Z" fill="#465F9D"/>
<path id="Path_23" fill-rule="evenodd" clip-rule="evenodd" d="M45.0815 59.892C45.3382 59.773 45.6159 60.0017 45.5551 60.2725L45.5505 60.2906L44.4469 64.2455C44.3966 64.4258 44.2096 64.5311 44.0294 64.4808C43.8555 64.4323 43.7513 64.2568 43.7892 64.0826L43.794 64.0633L44.7002 60.816L41.4943 62.3031C41.3308 62.3789 41.1379 62.3133 41.0535 62.1567L41.0442 62.1382C40.9684 61.9747 41.034 61.7818 41.1906 61.6974L41.2091 61.6882L45.0815 59.892Z" fill="#465F9D"/>
</g>
<g id="hands">
<g id="hand">
<g id="text_shape">
<rect id="Rectangle_13" x="86.334" y="29.4254" width="28.247" height="4.85977" fill="#FAA184" stroke="#2E186A"/>
<path id="Path_24" fill-rule="evenodd" clip-rule="evenodd" d="M113.011 30.8612C113.198 30.8612 113.35 31.013 113.35 31.2001C113.35 31.3806 113.209 31.5281 113.031 31.5385L113.011 31.539H88.0806C87.8934 31.539 87.7417 31.3873 87.7417 31.2001C87.7417 31.0196 87.8828 30.8721 88.0607 30.8618L88.0806 30.8612H113.011Z" fill="white" stroke="#2E186A"/>
<path id="Path_25" fill-rule="evenodd" clip-rule="evenodd" d="M98.7592 32.192C98.9464 32.192 99.0981 32.3437 99.0981 32.5309C99.0981 32.7113 98.957 32.8589 98.7791 32.8692L98.7592 32.8697H88.0806C87.8934 32.8697 87.7417 32.718 87.7417 32.5309C87.7417 32.3504 87.8828 32.2028 88.0607 32.1925L88.0806 32.192H98.7592Z" fill="white" stroke="#2E186A"/>
</g>
<g id="hand-2">
<path id="Path_26" fill-rule="evenodd" clip-rule="evenodd" d="M70.6408 8.06371C70.6408 8.06371 60.7812 20.6661 62.4101 31.8113C60.867 35.1551 59.8119 42.099 63.6392 47.4141C65.8251 50.7861 68.8977 47.753 67.1829 43.528C65.8273 40.6768 67.1829 38.1554 67.1829 38.1554C67.1829 38.1554 69.7551 41.9849 74.3845 43.2389C79.0138 44.4928 80.9568 42.2097 80.9568 42.2097C80.9568 42.2097 84.2848 42.3939 84.0498 40.6734C85.8572 41.9816 88.7774 41.916 90.9203 39.9956C93.0633 38.0752 94.5601 36.0904 92.8407 34.7992C91.1214 33.508 89.8167 34.7473 88.5537 36.1717C86.9914 37.934 84.6677 34.3903 84.5152 32.9037C84.2136 29.9666 83.5245 26.2285 84.8959 25.8851C86.2673 25.5417 90.0166 23.7365 90.6119 25.6264C91.2073 27.5163 91.1271 30.5133 94.0416 29.8276C96.9561 29.1419 96.3472 21.406 94.8041 19.5207C93.261 17.6353 90.8074 16.3452 86.6875 16.2593C88.4023 12.0582 92.6747 6.88323 92.6747 6.88323C92.6747 6.88323 98.5037 2.83455 84.8722 1.03388C74.6703 0.435165 70.6408 8.06371 70.6408 8.06371Z" fill="white" stroke="#2E186A"/>
<path id="Path_27" fill-rule="evenodd" clip-rule="evenodd" d="M72.2678 35.2585C72.4407 35.2068 72.6225 35.2997 72.6833 35.4672L72.7104 35.5508L72.7308 35.6112C72.7345 35.6217 72.7383 35.6326 72.7422 35.6437L72.7671 35.7133L72.7807 35.7504C72.8615 35.9687 72.9626 36.2128 73.085 36.4762C73.4356 37.2301 73.8866 37.9843 74.4469 38.6869C76.0387 40.6831 78.1762 41.8742 80.957 41.8742C81.1442 41.8742 81.2959 42.026 81.2959 42.2131C81.2959 42.4003 81.1442 42.552 80.957 42.552C77.9534 42.552 75.6294 41.2569 73.9169 39.1094C73.3207 38.3617 72.8425 37.562 72.4705 36.762C72.3531 36.5096 72.2539 36.273 72.1718 36.0569L72.1332 35.9534L72.0921 35.8384L72.068 35.7676L72.0494 35.7105L72.0402 35.6802C71.9866 35.5009 72.0885 35.3121 72.2678 35.2585Z" fill="white" stroke="#2E186A"/>
<path id="Path_28" fill-rule="evenodd" clip-rule="evenodd" d="M77.818 32.5778C77.8363 32.3916 78.0022 32.2555 78.1884 32.2738C78.3681 32.2915 78.501 32.4464 78.4939 32.6244L78.4891 32.6922L78.4883 32.708C78.4668 33.1191 78.5022 33.6745 78.6412 34.3212C78.851 35.2973 79.2574 36.2613 79.907 37.1631C80.8522 38.4753 82.2498 39.5671 84.178 40.3636C84.351 40.435 84.4333 40.6332 84.3618 40.8062C84.2904 40.9792 84.0922 41.0615 83.9192 40.99C81.8757 40.1459 80.3769 38.975 79.3571 37.5593C78.65 36.5777 78.2072 35.5273 77.9785 34.4636C77.8316 33.7799 77.79 33.1842 77.809 32.7234L77.8137 32.6327L77.817 32.5883C77.8173 32.5845 77.8176 32.581 77.818 32.5778Z" fill="white" stroke="#2E186A"/>
</g>
</g>
<g id="hand_II">
<path id="Path_29" fill-rule="evenodd" clip-rule="evenodd" d="M108.698 55.4865L94.6291 53.774C94.6291 53.774 90.7465 52.7844 89.1435 54.2123C87.2603 54.2213 85.6506 54.9624 84.286 56.1203C83.1687 55.8763 80.3841 55.5555 79.7753 58.2203C79.1811 60.8185 78.719 64.5882 78.5417 66.1448C78.1017 67.5212 77.7422 68.9221 77.4651 70.3404L66.3166 70.2907C62.7921 70.4929 60.613 74.7663 61.4523 79.8498C62.2724 84.8123 65.6704 88.6995 69.1136 88.6814L91.1159 88.7334L91.1689 88.6204L97.4351 70.1788C96.5822 69.2661 95.6819 68.3036 95.6571 67.4462C95.5678 64.3283 97.5447 60.7812 97.5447 60.7812C97.5447 60.7812 99.4403 60.8355 104.907 61.0546C110.373 61.2738 108.698 55.4865 108.698 55.4865Z" fill="white" stroke="#2E186A"/>
<path id="Path_30" fill-rule="evenodd" clip-rule="evenodd" d="M94.3755 53.6315C94.8292 53.5123 95.2409 53.499 95.5843 53.549L95.6105 53.553L95.6577 53.561C95.665 53.5624 95.672 53.5637 95.6787 53.565L95.7151 53.5727C95.7261 53.5752 95.7358 53.5776 95.7442 53.5798C95.9251 53.628 96.0326 53.8137 95.9844 53.9946C95.9379 54.169 95.7636 54.2752 95.5891 54.2393L95.5563 54.2319L95.5245 54.2258L95.4865 54.2197C95.2285 54.1821 94.9075 54.1925 94.5477 54.287C94.025 54.4244 93.5082 54.72 93.0171 55.2157C92.5737 55.6632 92.1673 56.2593 91.8087 57.0214C91.082 58.5664 90.3864 60.1951 89.7465 61.8056L89.6581 62.0288L89.5723 62.2472L89.4482 62.5656L89.3301 62.8724L89.2179 63.1669L89.1021 63.4747L88.9683 63.8364L88.9314 63.938C88.8681 64.1141 88.674 64.2056 88.4978 64.1423C88.328 64.0813 88.2368 63.8987 88.2873 63.7278L88.304 63.6798L88.4052 63.4039L88.5121 63.1177L88.6587 62.7304L88.7361 62.5284L88.8572 62.2153L88.984 61.8908L89.0718 61.6683C89.0866 61.6308 89.1016 61.5932 89.1166 61.5553C89.7613 59.9328 90.4622 58.2917 91.1954 56.7329C91.5858 55.9032 92.0358 55.2431 92.5356 54.7386C93.1127 54.1562 93.7364 53.7994 94.3755 53.6315Z" fill="white" stroke="#2E186A"/>
<path id="Path_31" fill-rule="evenodd" clip-rule="evenodd" d="M89.4234 54.0216C89.5249 54.1705 89.4915 54.3715 89.3508 54.4803L89.3204 54.5021L89.2914 54.5243L89.2665 54.5442L89.2309 54.5737L89.1892 54.6094L89.1661 54.6296C89.0159 54.7623 88.8449 54.9341 88.6572 55.1488C88.1125 55.7718 87.5494 56.6119 87.0012 57.6976C86.2026 59.3082 85.557 60.9903 85.0731 62.7217C85.0227 62.902 84.8357 63.0073 84.6555 62.9569C84.4752 62.9065 84.3699 62.7195 84.4203 62.5393C84.9157 60.767 85.5765 59.0452 86.3951 57.3943C86.9697 56.2562 87.5645 55.3688 88.147 54.7026C88.3379 54.4842 88.5158 54.3035 88.6774 54.1574L88.7417 54.1003L88.7873 54.0612L88.8289 54.0266L88.8833 53.9831L88.9282 53.9494L88.9526 53.9322C89.1073 53.8268 89.3181 53.8669 89.4234 54.0216Z" fill="white" stroke="#2E186A"/>
<g id="pencil">
<path id="Path_32" fill-rule="evenodd" clip-rule="evenodd" d="M114.967 51.997L112.615 58.6552L91.4782 77.891L88.5547 75.3425L86.4072 72.9453L107.886 53.4181L114.967 51.997Z" fill="#FAA184" stroke="#2E186A"/>
<path id="Path_33" fill-rule="evenodd" clip-rule="evenodd" d="M113.858 55.1397L114.967 51.997L111.441 52.7042L113.858 55.1397Z" fill="white" stroke="#2E186A"/>
<path id="Path_34" fill-rule="evenodd" clip-rule="evenodd" d="M110.759 56.4218C110.899 56.2981 111.113 56.3116 111.237 56.452C111.356 56.5871 111.348 56.7902 111.223 56.9157L111.207 56.9303L92.1079 73.7611C91.9675 73.8848 91.7533 73.8713 91.6296 73.7309C91.5106 73.5958 91.5185 73.3926 91.6441 73.2672L91.6598 73.2525L110.759 56.4218Z" fill="white" stroke="#2E186A"/>
<path id="Path_35" fill-rule="evenodd" clip-rule="evenodd" d="M109.323 54.9273C109.464 54.8043 109.679 54.8188 109.802 54.9599C109.92 55.0955 109.911 55.2986 109.785 55.4235L109.769 55.438L90.4509 72.2925C90.3098 72.4155 90.0957 72.4009 89.9727 72.2599C89.8544 72.1243 89.8633 71.9212 89.9896 71.7963L90.0053 71.7817L109.323 54.9273Z" fill="white" stroke="#2E186A"/>
<path id="Path_36" fill-rule="evenodd" clip-rule="evenodd" d="M89.915 71.923L86.4696 72.8572L85.5557 76.3083L88.0872 78.8252L91.5327 77.891L92.4465 74.4399L89.915 71.923Z" fill="#FAA184" stroke="#2E186A"/>
<circle id="Oval_8" cx="89.0012" cy="75.3741" r="1.12965" fill="white" stroke="#2E186A"/>
</g>
<g id="Path_37">
<path fill-rule="evenodd" clip-rule="evenodd" d="M95.4302 74.8409C95.4302 74.8409 95.6855 74.1484 97.4353 70.1754C99.1851 66.2024 101.954 62.8496 105.381 63.7974C108.809 64.7452 106.074 70.1754 106.074 70.1754C106.074 70.1754 102.007 81.2743 100.313 83.1337C98.618 84.9931 96.4333 88.8373 90.8076 88.6102" fill="white"/>
<path d="M95.4302 74.8409C95.4302 74.8409 95.6855 74.1484 97.4353 70.1754C99.1851 66.2024 101.954 62.8496 105.381 63.7974C108.809 64.7452 106.074 70.1754 106.074 70.1754C106.074 70.1754 102.007 81.2743 100.313 83.1337C98.618 84.9931 96.4333 88.8373 90.8076 88.6102" stroke="#2E186A"/>
</g>
</g>
</g>
<path id="line" fill-rule="evenodd" clip-rule="evenodd" d="M190.258 88.4905C190.445 88.4905 190.597 88.6422 190.597 88.8294C190.597 89.0099 190.455 89.1574 190.278 89.1677L190.258 89.1683H1.00003C0.812862 89.1683 0.661133 89.0166 0.661133 88.8294C0.661133 88.6489 0.802217 88.5014 0.980116 88.4911L1.00003 88.4905H190.258Z" fill="#2F4077"/>
</g>
</svg>
