<svg width="198" height="89" viewBox="0 0 198 89" fill="none" xmlns="http://www.w3.org/2000/svg">
<g id="product launch_solid III" clip-path="url(#clip0_2260_26508)">
<g id="Layer 2">
<g id="soild III">
<g id="man">
<g id="hand II">
<path id="Vector" d="M99.1222 34.8032C97.4881 36.2518 69.5477 55.4933 69.5477 55.4933L52.1742 31.5138C52.1742 31.5138 49.357 27.8562 47.1148 27.4398C44.097 26.88 35.6683 28.5835 35.8931 32.5535C35.8222 33.8013 43.3591 32.7043 44.2132 38.74L46.7783 41.0999C46.7783 41.0999 54.1614 57.3131 57.7043 65.2243C64.3691 79.6766 78.5695 74.9567 82.5877 72.0838C91.2609 65.8837 105.585 56.7261 105.585 56.7261L99.1222 34.8032Z" fill="white" stroke="#2E186A" stroke-width="1.14767" stroke-linecap="round" stroke-linejoin="round"/>
<path id="Vector_2" d="M39.3211 6.57515C39.214 6.1089 38.4158 5.8207 37.9631 5.78449C36.676 4.99382 33.6914 4.05679 28.3378 6.94936C23.1275 9.76498 19.3372 9.6156 17.098 7.36431C17.0069 7.27168 16.888 7.21149 16.7594 7.19301C16.6308 7.17453 16.4998 7.19877 16.3863 7.26201C16.2729 7.32525 16.1833 7.42399 16.1314 7.54306C16.0795 7.66213 16.0682 7.79494 16.0991 7.9211L17.8071 15.013C17.9491 15.6012 18.2407 16.1428 18.6536 16.5852C20.3421 18.3959 24.5384 19.5548 30.5831 16.2835C33.7291 14.5844 36.6006 14.4592 38.5923 14.7625L47.0301 53.4206L49.5108 52.9076L39.3211 6.57515Z" fill="#FEAD7C"/>
<g id="Vector_3">
<path d="M42.6387 38.1365C42.6387 38.1365 41.3064 37.6748 41.5191 39.7179C41.7319 41.7609 43.6542 43.291 46.0881 41.8168C48.5219 40.3426 48.1719 39.4478 46.8818 38.8623C45.5916 38.2769 43.3087 39.4538 43.3087 39.4538" fill="white"/>
<path d="M42.6387 38.1365C42.6387 38.1365 41.3064 37.6748 41.5191 39.7179C41.7319 41.7609 43.6542 43.291 46.0881 41.8168C48.5219 40.3426 48.1719 39.4478 46.8818 38.8623C45.5916 38.2769 43.3087 39.4538 43.3087 39.4538" stroke="#2E186A" stroke-width="1.14767" stroke-linecap="round" stroke-linejoin="round"/>
</g>
<g id="Vector_4">
<path d="M40.9733 35.5391C40.9733 35.5391 39.0736 35.6703 39.4342 38.0001C39.7948 40.3298 42.44 41.368 45.1907 39.426C47.9414 37.484 47.4827 36.4882 45.9451 35.945C44.4076 35.4018 41.8273 36.9861 41.8273 36.9861" fill="white"/>
<path d="M40.9733 35.5391C40.9733 35.5391 39.0736 35.6703 39.4342 38.0001C39.7948 40.3298 42.44 41.368 45.1907 39.426C47.9414 37.484 47.4827 36.4882 45.9451 35.945C44.4076 35.4018 41.8273 36.9861 41.8273 36.9861" stroke="#2E186A" stroke-width="1.14767" stroke-linecap="round" stroke-linejoin="round"/>
</g>
<g id="Vector_5">
<path d="M42.226 31.2715C42.226 31.2715 37.5363 33.2527 37.9121 35.685C38.2878 38.1174 41.1698 39.1253 44.0442 37.0959C46.9187 35.0664 46.4389 34.0267 44.8379 33.4594C43.237 32.892 40.536 34.5534 40.536 34.5534" fill="white"/>
<path d="M42.226 31.2715C42.226 31.2715 37.5363 33.2527 37.9121 35.685C38.2878 38.1174 41.1698 39.1253 44.0442 37.0959C46.9187 35.0664 46.4389 34.0267 44.8379 33.4594C43.237 32.892 40.536 34.5534 40.536 34.5534" stroke="#2E186A" stroke-width="1.14767" stroke-linecap="round" stroke-linejoin="round"/>
</g>
<g id="Vector_6">
<path d="M35.8926 32.556C36.3166 35.3037 39.5698 36.4399 42.8169 34.1479C46.0641 31.8559 45.5224 30.6774 43.7132 30.0422C41.9041 29.4069 39.526 31.7668 39.526 31.7668" fill="white"/>
<path d="M35.8926 32.556C36.3166 35.3037 39.5698 36.4399 42.8169 34.1479C46.0641 31.8559 45.5224 30.6774 43.7132 30.0422C41.9041 29.4069 39.526 31.7668 39.526 31.7668" stroke="#2E186A" stroke-width="1.14767" stroke-linecap="round" stroke-linejoin="round"/>
</g>
<g id="Vector_7">
<path d="M44.4516 28.3987C44.4516 28.3987 40.7533 24.0606 42.1716 21.6434C43.59 19.2261 44.3595 23.5838 45.6844 23.8765C47.0092 24.1693 52.1727 31.5131 52.1727 31.5131" fill="white"/>
<path d="M44.4516 28.3987C44.4516 28.3987 40.7533 24.0606 42.1716 21.6434C43.59 19.2261 44.3595 23.5838 45.6844 23.8765C47.0092 24.1693 52.1727 31.5131 52.1727 31.5131" stroke="#2E186A" stroke-width="1.14767" stroke-linecap="round" stroke-linejoin="round"/>
</g>
</g>
<path id="arm" d="M182.263 88.1797C179.884 83.2396 162.607 71.6406 162.607 71.6406L148.898 88.1797H182.263Z" fill="white" stroke="#2E186A" stroke-width="1.14767" stroke-linecap="round" stroke-linejoin="round"/>
<path id="shirt" d="M150.878 59.737C142.458 53.3136 114.322 36.1091 111.099 34.2607C106.982 31.9038 96.3521 33.3463 81.9616 41.947L83.6546 59.737L61.8887 88.1799H151.074L163.922 71.6408L150.878 59.737Z" fill="#7F6CA3"/>
<path id="neck" d="M123.408 36.0625L116.704 44.0778C113.083 48.4144 113.535 54.9042 117.836 58.5769C117.91 58.6402 117.987 58.7021 118.062 58.7655C121.533 61.5841 126.121 60.4389 129.065 59.194C130.792 58.4619 132.287 57.2724 133.388 55.7537L139.802 46.9477L123.408 36.0625Z" fill="white" stroke="#2E186A" stroke-width="1.14767" stroke-linecap="round" stroke-linejoin="round"/>
<g id="head">
<path id="ear" d="M148.519 34.9265C148.519 34.9265 153.088 36.8307 150.639 40.6271C148.191 44.4235 144.041 40.0341 144.041 40.0341L147.032 34.4512L148.519 34.9265Z" fill="white" stroke="#2E186A" stroke-width="1.14767" stroke-linecap="round" stroke-linejoin="round"/>
<path id="face" d="M140.52 16.7648C139.099 16.0631 129.69 15.1759 127.592 18.9633C123.948 25.5421 121.911 33.5891 121.302 37.39C120.692 41.1909 137.249 45.8399 138.274 45.8882C139.298 45.9364 140.788 45.2997 140.788 45.2997L147.169 35.5054C147.169 35.5054 153.13 22.986 140.52 16.7648Z" fill="white" stroke="#2E186A" stroke-width="1.14767" stroke-linecap="round" stroke-linejoin="round"/>
<path id="beard" d="M145.689 34.8189C144.619 35.2806 140.819 38.8748 139.502 40.7308C139.502 40.7308 135.076 36.9917 127.804 34.0026C127.804 34.0026 123.784 32.5118 122.008 32.3594C122.008 32.3594 119.483 39.7726 121.232 44.8139C122.981 49.8551 130.233 51.4968 134.333 50.4949C138.432 49.493 139.387 48.6208 141.085 46.4903C142.782 44.3597 148.305 36.0954 148.305 36.0954L145.689 34.8189Z" fill="#968BB4"/>
<path id="hair" d="M147.16 37.1955C147.16 37.1955 150.644 34.7043 152.853 31.5477C154.928 28.5857 154.759 24.557 152.308 21.8907C150.256 19.6636 147.797 19.2894 147.797 19.2894C147.797 19.2894 151.838 15.2546 148.735 9.95075C148.192 9.02348 147.465 8.21682 146.6 7.58013C145.734 6.94344 144.747 6.49012 143.7 6.2479C138.535 5.0619 135.821 8.98354 135.821 8.98354C135.821 8.98354 132.954 -2.53091 120.152 0.503495C118.86 0.805276 117.145 2.15424 116.238 3.12446C110.735 9.00919 120.87 20.3094 127.079 22.6135C133.897 25.1424 137.876 24.4649 140.691 23.6697C138.695 24.0122 136.537 34.7994 147.16 37.1955Z" fill="#2E186A"/>
<path id="nose" d="M128.714 31.123L125.488 36.4465L127.948 37.4846" stroke="#2E186A" stroke-width="1.14767" stroke-linecap="round" stroke-linejoin="round"/>
<path id="eye II" d="M126.856 30.7728C127.075 30.2177 126.961 29.653 126.602 29.5115C126.243 29.37 125.775 29.7054 125.556 30.2605C125.338 30.8156 125.451 31.3803 125.81 31.5218C126.169 31.6633 126.637 31.3279 126.856 30.7728Z" fill="#2E186A"/>
<path id="eye" d="M133.153 32.6146C133.372 32.0595 133.258 31.4948 132.899 31.3533C132.54 31.2118 132.072 31.5472 131.853 32.1023C131.634 32.6574 131.748 33.2221 132.107 33.3636C132.466 33.5051 132.934 33.1697 133.153 32.6146Z" fill="#2E186A"/>
<path id="brow" d="M136.847 29.1219C136.685 28.5725 136.379 28.0767 135.96 27.6863C135.541 27.2959 135.024 27.0251 134.465 26.9023" stroke="#2E186A" stroke-width="1.14767" stroke-linecap="round" stroke-linejoin="round"/>
<path id="brow_2" d="M128.972 25.0593C128.972 25.0593 127.355 23.8809 126.324 25.1755" stroke="#2E186A" stroke-width="1.14767" stroke-linecap="round" stroke-linejoin="round"/>
<path id="mouth" d="M127.863 41.7059C129.761 41.6652 130.941 41.0586 130.941 41.0586C130.963 41.1401 131.649 43.8727 129.86 43.7746C128.047 43.8772 127.863 41.7059 127.863 41.7059Z" stroke="#2E186A" stroke-width="1.14767" stroke-linecap="round" stroke-linejoin="round"/>
</g>
<g id="hand">
<g id="Vector_8">
<path d="M131.309 78.6381L147.579 80.7837L151.217 88.1774H173.332C173.332 88.1774 154.211 72.0879 148.216 70.3451C141.489 67.8026 134.74 70.2244 133.58 71.6036C132.305 73.1125 128.175 77.0356 126.002 77.3449C123.829 77.6543 121.265 76.9511 121.303 78.2684C121.32 78.8719 121.045 80.8018 124.286 80.5529C126.701 80.3658 129.159 80.147 131.312 78.6396" fill="white"/>
<path d="M131.309 78.6381L147.579 80.7837L151.217 88.1774H173.332C173.332 88.1774 154.211 72.0879 148.216 70.3451C141.489 67.8026 134.74 70.2244 133.58 71.6036C132.305 73.1125 128.175 77.0356 126.002 77.3449C123.829 77.6543 121.265 76.9511 121.303 78.2684C121.32 78.8719 121.045 80.8018 124.286 80.5529C126.701 80.3658 129.159 80.147 131.312 78.6396" stroke="#2E186A" stroke-width="1.14767" stroke-linecap="round" stroke-linejoin="round"/>
</g>
<g id="Vector_9">
<path d="M134.43 73.541C134.43 73.541 130.714 77.3012 130.823 78.5415C130.931 79.7819 132.624 82.35 133.892 82.35C135.159 82.35 137.06 82.267 137.06 82.267" fill="white"/>
<path d="M134.43 73.541C134.43 73.541 130.714 77.3012 130.823 78.5415C130.931 79.7819 132.624 82.35 133.892 82.35C135.159 82.35 137.06 82.267 137.06 82.267" stroke="#2E186A" stroke-width="1.14767" stroke-linecap="round" stroke-linejoin="round"/>
</g>
<g id="Vector_10">
<path d="M137.423 74.5762C137.423 74.5762 134.577 77.594 134.612 78.7C134.646 79.806 136.06 82.2218 137.509 82.5779C138.957 82.934 141.261 82.1992 141.261 82.1992" fill="white"/>
<path d="M137.423 74.5762C137.423 74.5762 134.577 77.594 134.612 78.7C134.646 79.806 136.06 82.2218 137.509 82.5779C138.957 82.934 141.261 82.1992 141.261 82.1992" stroke="#2E186A" stroke-width="1.14767" stroke-linecap="round" stroke-linejoin="round"/>
</g>
<g id="Vector_11">
<path d="M140.481 75.8438C140.481 75.8438 137.576 78.6262 139.058 80.1638C141.059 81.9563 142.604 82.3396 143.541 82.3396C144.573 82.3396 146.393 80.5666 146.393 80.5666" fill="white"/>
<path d="M140.481 75.8438C140.481 75.8438 137.576 78.6262 139.058 80.1638C141.059 81.9563 142.604 82.3396 143.541 82.3396C144.573 82.3396 146.393 80.5666 146.393 80.5666" stroke="#2E186A" stroke-width="1.14767" stroke-linecap="round" stroke-linejoin="round"/>
</g>
<path id="Vector_12" d="M142.129 78.4043C142.129 78.4043 141.722 79.8166 147.579 80.7838" stroke="#2E186A" stroke-width="1.14767" stroke-linecap="round" stroke-linejoin="round"/>
</g>
</g>
<g id="clouds">
<path id="Vector_13" d="M105.956 77.3407C101.339 64.8696 90.2426 66.1265 90.2426 66.1265V59.7363H73.6975V66.1265C73.6975 66.1265 62.601 64.8696 57.9838 77.3407C57.9838 77.3407 47.8319 75.3792 42.9219 88.054H121.017C116.108 75.3761 105.956 77.3407 105.956 77.3407Z" fill="white" stroke="#2E186A" stroke-width="1.14767" stroke-linecap="round" stroke-linejoin="round"/>
<path id="Vector_14" d="M99.6549 80.0007C96.1844 70.6244 87.8402 71.5689 87.8402 71.5689V57.8379H75.4008V71.5689C75.4008 71.5689 67.0565 70.6244 63.5861 80.0007C63.5861 80.0007 55.954 78.522 52.2617 88.0537H110.978C107.287 78.522 99.6549 80.0007 99.6549 80.0007Z" fill="white" stroke="#2E186A" stroke-width="1.14767" stroke-linecap="round" stroke-linejoin="round"/>
<path id="Vector_15" d="M94.1038 82.3146C91.6639 75.7237 85.8049 76.3876 85.8049 76.3876V58.5312H77.0577V76.3876C77.0577 76.3876 71.1926 75.7237 68.7587 82.3146C68.7587 82.3146 63.3946 81.2765 60.8008 87.9745H102.069C99.468 81.2765 94.1038 82.3146 94.1038 82.3146Z" fill="white" stroke="#2E186A" stroke-width="1.14767" stroke-linecap="round" stroke-linejoin="round"/>
</g>
<g id="rocket">
<path id="Vector_16" d="M73.4836 65.1361L75.1328 71.555C75.1538 71.6251 75.1973 71.6863 75.2567 71.7291C75.316 71.7719 75.3879 71.7939 75.461 71.7917C75.5341 71.7894 75.6045 71.7631 75.6611 71.7167C75.7177 71.6704 75.7574 71.6066 75.7741 71.5354L77.2392 68.4074C77.2392 68.4074 79.1616 75.2503 81.8806 75.445C84.5997 75.6396 87.281 68.3063 87.281 68.3063L88.5168 71.647C88.5401 71.7162 88.5855 71.7757 88.6461 71.8165C88.7066 71.8572 88.7789 71.8769 88.8517 71.8724C88.9245 71.8679 88.9939 71.8396 89.049 71.7918C89.1041 71.7439 89.1419 71.6793 89.1566 71.6078L90.836 65.287C90.836 65.287 92.3027 54.5874 81.7282 55.4082C71.1538 56.2291 73.4836 65.1361 73.4836 65.1361Z" fill="#FEAD7C"/>
<path id="Vector_17" d="M69.0261 36.0886C69.0261 36.0886 60.9413 47.0417 61.981 56.839H79.8223V35.8652L69.0261 36.0886Z" fill="#FEAD7C"/>
<path id="Vector_18" d="M94.4581 36.0886C94.4581 36.0886 102.543 47.0417 101.503 56.839H83.6543V35.8652L94.4581 36.0886Z" fill="#FEAD7C"/>
<path id="Vector_19" d="M89.0272 56.8379C95.8807 44.5192 95.1353 34.74 93.133 28.0419C91.1307 21.3439 86.4274 13.8809 81.9625 13.8809C77.4977 13.8809 72.799 21.3499 70.7966 28.048C68.7943 34.746 67.9478 44.5252 74.7998 56.8439L72.8819 60.9587H90.9496L89.0272 56.8379Z" fill="white" stroke="#2E186A" stroke-width="1.14767" stroke-linecap="round" stroke-linejoin="round"/>
<path id="Vector_20" d="M81.9616 39.2111C84.7816 39.2111 87.0677 36.492 87.0677 33.1378C87.0677 29.7836 84.7816 27.0645 81.9616 27.0645C79.1416 27.0645 76.8555 29.7836 76.8555 33.1378C76.8555 36.492 79.1416 39.2111 81.9616 39.2111Z" fill="#FEAD7C"/>
<path id="Vector_21" d="M81.9624 41.9488C82.4324 41.9488 82.8134 41.4955 82.8134 40.9363C82.8134 40.3771 82.4324 39.9238 81.9624 39.9238C81.4923 39.9238 81.1113 40.3771 81.1113 40.9363C81.1113 41.4955 81.4923 41.9488 81.9624 41.9488Z" fill="#FEAD7C"/>
<path id="Vector_22" d="M85.2358 41.9488C85.7058 41.9488 86.0868 41.4955 86.0868 40.9363C86.0868 40.3771 85.7058 39.9238 85.2358 39.9238C84.7658 39.9238 84.3848 40.3771 84.3848 40.9363C84.3848 41.4955 84.7658 41.9488 85.2358 41.9488Z" fill="#FEAD7C"/>
<path id="Vector_23" d="M78.4252 41.9488C78.8952 41.9488 79.2763 41.4955 79.2763 40.9363C79.2763 40.3771 78.8952 39.9238 78.4252 39.9238C77.9552 39.9238 77.5742 40.3771 77.5742 40.9363C77.5742 41.4955 77.9552 41.9488 78.4252 41.9488Z" fill="#FEAD7C"/>
<path id="Vector_24" d="M81.9616 37.1269C84.0891 37.1269 85.8139 35.0759 85.8139 32.5459C85.8139 30.0158 84.0891 27.9648 81.9616 27.9648C79.8341 27.9648 78.1094 30.0158 78.1094 32.5459C78.1094 35.0759 79.8341 37.1269 81.9616 37.1269Z" fill="white" stroke="#2E186A" stroke-width="1.14767" stroke-linecap="round" stroke-linejoin="round"/>
<path id="Vector_25" d="M82.8631 13.3954V6.22053C82.8631 6.1979 82.8631 6.17527 82.8631 6.15414C82.9846 5.98816 83.0578 5.79176 83.0745 5.58673C83.0912 5.3817 83.0507 5.17606 82.9577 4.99261C82.8646 4.80916 82.7226 4.65507 82.5473 4.54743C82.372 4.43979 82.1703 4.38281 81.9646 4.38281C81.7589 4.38281 81.5572 4.43979 81.3819 4.54743C81.2066 4.65507 81.0645 4.80916 80.9715 4.99261C80.8784 5.17606 80.838 5.3817 80.8547 5.58673C80.8714 5.79176 80.9445 5.98816 81.066 6.15414C81.066 6.17527 81.066 6.1979 81.066 6.22053V13.3818C79.1935 13.7651 77.3239 15.3434 75.6113 17.4377C77.8331 16.9375 80.1149 16.7561 82.3878 16.8991C84.4725 17.0089 86.5431 17.3063 88.5743 17.7878C86.8059 15.5229 84.8247 13.8209 82.8631 13.3954Z" fill="#FEAD7C"/>
<path id="Vector_26" d="M90.0941 21.82C87.5096 20.8976 84.7986 20.3785 82.0561 20.2809C78.6279 20.1451 76.0205 20.9343 73.8839 21.7898C72.9644 23.5292 72.2019 25.3471 71.6055 27.2219C74.1706 25.9393 77.3061 24.5843 82.1286 24.6749C86.7066 24.7594 89.8602 25.7945 92.2518 26.8899C91.6746 25.143 90.9529 23.4471 90.0941 21.82Z" fill="#FEAD7C"/>
<path id="Vector_27" d="M88.504 56.7911C88.8188 56.2047 89.1176 55.6243 89.4002 55.0499C87.9004 54.4176 85.7502 53.8986 81.9281 53.9333C78.0608 53.8986 75.9016 54.4373 74.4062 55.0785C74.6849 55.6459 74.9796 56.2188 75.2905 56.7972C75.2905 56.7972 78.6855 56.1121 81.9297 56.1408C85.1165 56.1137 88.504 56.7911 88.504 56.7911Z" fill="#FEAD7C"/>
</g>
<g id="remote control">
<path id="Vector_28" d="M129.361 80.791H111.867V84.684H129.361V80.791Z" fill="#FEAD7C"/>
<path id="Vector_29" d="M125.824 80.791V84.6825" stroke="#2E186A" stroke-width="1.53023" stroke-linecap="round" stroke-linejoin="round"/>
<path id="Vector_30" d="M101.474 83.2715V85.2526H92.8608C92.7021 84.9643 92.452 84.737 92.1499 84.6064C91.8478 84.4758 91.5109 84.4494 91.1921 84.5313C90.8734 84.6132 90.5909 84.7988 90.3893 85.0589C90.1876 85.319 90.0781 85.6388 90.0781 85.9679C90.0781 86.297 90.1876 86.6167 90.3893 86.8768C90.5909 87.1369 90.8734 87.3225 91.1921 87.4044C91.5109 87.4864 91.8478 87.4599 92.1499 87.3293C92.452 87.1988 92.7021 86.9714 92.8608 86.6831H101.474V87.9551H139.136V83.2775L101.474 83.2715Z" fill="#2E186A"/>
<path id="Vector_31" d="M132.414 83.2715V87.9551" stroke="#2E186A" stroke-width="1.53023" stroke-linecap="round" stroke-linejoin="round"/>
</g>
<path id="line" d="M196.818 88.1797H0.453125" stroke="#2E186A" stroke-width="1.14767" stroke-linecap="round" stroke-linejoin="round"/>
</g>
</g>
</g>
<defs>
<clipPath id="clip0_2260_26508">
<rect width="197.27" height="88.6331" fill="white"/>
</clipPath>
</defs>
</svg>
